PathFileType	4	(X/Y/Z)	Patient4_TMGait_0pt4_01_right_31.trc.trc
DataRate	CameraRate	NumFrames	NumMarkers	Units	OrigDataRate	OrigDataStartFrame	OrigNumFrames
72.164948453608	72.164948453608	4	33	mm	72.164948453608	106	       141
Frame#	Time	Sacral			L.Shoulder			Chest			R.Shoulder			Neck			R.ASIS			L.ASIS			R.Thigh.Superior			R.Thigh.Lateral			R.Thigh.Inferior			R.Patella			L.Thigh.Superior			L.Thigh.Lateral			L.Thigh.Inferior			L.Patella			L.Shank.Superior			L.Shank.Lateral			L.Shank.Inferior			R.Shank.Superior			R.Shank.Lateral			R.Shank.Inferior			R.Heel			R.Midfoot.Superior			R.Midfoot.Lateral			R.Toe			L.Heel			L.Midfoot.Lateral			L.Midfoot.Superior			L.Toe			L.Elbow			L.Wrist			R.Elbow			R.Wrist			
		X1	Y1	Z1	X2	Y2	Z2	X3	Y3	Z3	X4	Y4	Z4	X5	Y5	Z5	X6	Y6	Z6	X7	Y7	Z7	X8	Y8	Z8	X9	Y9	Z9	X10	Y10	Z10	X11	Y11	Z11	X12	Y12	Z12	X13	Y13	Z13	X14	Y14	Z14	X15	Y15	Z15	X16	Y16	Z16	X17	Y17	Z17	X18	Y18	Z18	X19	Y19	Z19	X20	Y20	Z20	X21	Y21	Z21	X22	Y22	Z22	X23	Y23	Z23	X24	Y24	Z24	X25	Y25	Z25	X26	Y26	Z26	X27	Y27	Z27	X28	Y28	Z28	X29	Y29	Z29	X30	Y30	Z30	X31	Y31	Z31	X32	Y32	Z32	X33	Y33	Z33	

106	41.555000000000	832.255571780406	1009.518928924280	442.795823348328	1026.851256747479	1420.517491194560	237.039728281485	1110.856109305712	1374.728449616417	415.212351598311	1006.955758570980	1464.293037506881	569.832409199199	995.214808643686	1498.819324278679	382.825757785451	1055.382000271281	956.129701195923	575.966390092883	1058.632237205753	968.303446283940	301.625544008788	1144.332473985965	789.550686620676	552.161015384547	1108.649600931800	665.735011648315	628.344314308668	1200.781492797710	630.476885261182	552.713561255573	1230.504634268121	531.499756506267	577.118561540133	1085.196720650608	750.350853303929	329.587468005321	984.421874965553	642.219264889136	265.386563407354	1062.197564643675	558.715277982045	325.617796651161	1055.631269144396	492.239912512622	334.026430735516	1030.480957554816	420.910901239803	328.587524748317	937.418887183442	305.010130920220	286.355970587852	996.865458885562	195.990185343924	356.564439604780	1184.380728547133	442.646918872960	585.026682945441	1090.321876557754	359.931999997566	648.936017297871	1120.244769479033	253.224821797807	600.266714216010	962.967596141182	109.881466691088	576.796042687375	1139.102742709181	133.286929409308	613.757107683078	1042.903125682445	85.495994525341	650.998070358635	1247.625533233170	64.732978540407	643.273749868533	873.392996885320	38.330596845474	406.054846184670	948.484846840539	34.801847402874	325.727893060294	1030.698100412910	98.285583819107	350.908177821826	1159.987583052206	48.213878019044	328.371107909036	1065.675854127674	1071.645067648364	119.748601845616	1209.061906986011	850.906192728506	127.250786346309	876.342533224113	1161.889363565745	716.727074534328	890.438588020302	906.598194025059	773.552450593197	
107	41.568857142857	830.671545901928	1009.694432416761	442.251018527550	1026.648900516853	1419.985958882613	236.606161904152	1109.916656283466	1374.462530652938	415.195143744920	1005.481640405789	1464.329257883185	569.281060941846	994.184815714223	1498.558081761230	382.175938295860	1053.471485237783	956.157820497763	576.238649090306	1057.690256900720	968.169938429220	301.756170766298	1140.987237560416	787.862092610232	551.844931630224	1104.147383468775	664.666283511775	628.284474570691	1194.942904751015	628.322510607622	551.831854821539	1225.363917709840	532.000031994300	575.578263784320	1082.629692279455	749.674622308324	329.834195096352	981.154009442826	642.162890519477	265.441298768210	1058.034662382577	558.203884693848	325.914942001054	1051.018117947334	491.923475414007	334.370264916413	1025.850925911643	420.736255344131	328.907256493413	932.727483869803	304.998217573299	286.298260065752	991.749087624387	195.887992270919	356.774801310120	1184.039618715460	442.715448835861	584.944771394380	1096.538697210036	355.047068504824	651.100387200870	1132.043777907655	250.052441334775	602.307124147275	983.648645358860	97.723977085090	581.924734883563	1158.672402178529	131.280485874549	616.358230273534	1065.860934507876	78.345191552921	655.109014278717	1271.166275827406	68.809320440235	644.532247669413	867.879069059349	38.298460581515	406.074354981971	942.937117634742	34.844356273652	325.769995299960	1025.184228739973	98.203355970339	351.041177110002	1154.449704228248	48.051009112965	328.341877822490	1069.044462308911	1070.869896866208	121.207372298166	1216.084634328888	852.589824672968	130.975691280946	872.875734257227	1162.862862732728	715.925675483457	885.361432687861	907.574156373507	773.143210240483	
108	41.582714285714	829.146898287159	1009.818276208477	441.851245225671	1026.490514213346	1419.489382925183	236.428007859504	1109.098435082878	1374.097873755165	415.360903625452	1004.227335315674	1464.224760951817	569.003657223808	993.281991710765	1498.261767710810	381.826092396319	1051.592551744456	956.058638698902	576.594114617238	1056.768565308916	967.969638075581	301.939493907424	1137.256594967524	785.608143639636	551.668657962721	1098.901162897004	663.306644278944	628.458346239986	1188.291971036025	625.602214178828	551.187289669111	1219.261794547878	532.093592545258	574.154657694803	1080.177684243370	748.971051396262	330.115058676227	978.047685714759	642.051432275998	265.626706093195	1054.033583825997	557.660452459845	326.381583669883	1046.598949676381	491.571167269734	334.931233950158	1021.414137330065	420.511821076846	329.410334020312	928.278543537426	304.953165422856	286.277417695917	986.734720079669	195.747449274817	357.111151555235	1182.882448095824	442.738664495400	584.987392714948	1102.398610163324	350.398096097091	653.344442768954	1143.452029044501	247.538188566747	604.238839633659	1004.577216935205	86.729782940754	586.848424278049	1178.064256144631	130.262801382674	618.691530708120	1088.877292467544	72.295215624371	658.837137534499	1294.170453819284	73.900810373885	645.144633376390	862.359679406407	38.255554742982	406.104849086746	937.385551082711	34.894652455014	325.825413442892	1019.666877031444	98.102978569605	351.230756411391	1148.908334240761	47.875824660136	328.318190677417	1072.011459337020	1070.136847598870	122.838837715652	1222.757206839229	854.455728324228	134.917079564350	869.971981059470	1163.457499512351	715.303734236547	881.213770775252	908.196932554597	772.934430526914	
109	41.596571428571	827.692386602444	1009.880270479790	441.583289823304	1026.376119983895	1419.027156476808	236.500989256617	1108.393368055698	1373.640842979431	415.711778701040	1003.172911688652	1463.986062514190	568.995519897703	992.496833450797	1497.932067821921	381.771084685668	1049.743723795294	955.834787083521	577.043106003107	1055.881342408419	967.698527783715	302.193944563147	1133.194858226494	782.877456588010	551.694645320790	1093.049359207498	661.723840226600	628.906145732199	1181.034165167639	622.455141163044	550.846903369138	1212.391761578405	531.849226673095	572.950761520946	1077.850741428157	748.246915651550	330.519130606660	975.156687900313	641.886623815589	265.940829016348	1050.215658094274	557.083971564722	327.054483777673	1042.383894811442	491.177167038913	335.721308006880	1017.173383022462	420.232580875892	330.096623376741	924.073031079517	304.875123104839	286.297644358534	981.816360797694	195.565678381957	357.567113104816	1180.981922898185	442.773115058148	585.192681116342	1107.763847857320	346.119407805557	655.570618099979	1154.246887750388	245.770047212979	605.977733642248	1025.281952720501	77.164696597597	591.305543434632	1196.888290883017	130.232192760976	620.621979996761	1111.444402565257	67.435737182458	661.961620325495	1316.186546021637	79.840594215557	645.022881468750	856.830702609489	38.205732339649	406.143047731398	931.829675592205	34.949579259802	325.889982480512	1014.147940171756	97.984192667907	351.468958165936	1143.363938763426	47.689965246891	328.303439097986	1074.602242858497	1069.446175455229	124.603906095413	1229.054383679887	856.476687670112	139.024846103870	867.643405181889	1163.675444027692	714.894453253686	878.032861148598	908.455275959140	772.919597512343	
